<svg width="26" height="27" viewBox="0 0 26 27" fill="none" xmlns="http://www.w3.org/2000/svg">
<g filter="url(#filter0_d_1_173)">
<path d="M21.0682 2.76033L14.1932 17.7603C14.1357 17.886 14.0381 17.989 13.9158 18.0533C13.7935 18.1177 13.6533 18.1396 13.5172 18.1158C13.3811 18.092 13.2567 18.0237 13.1635 17.9217C13.0703 17.8197 13.0135 17.6896 13.0021 17.5519L12.4208 10.579L5.44789 9.99771C5.31017 9.98627 5.18013 9.92951 5.0781 9.8363C4.97607 9.7431 4.90781 9.61871 4.88399 9.48258C4.86017 9.34646 4.88213 9.20628 4.94645 9.08397C5.01077 8.96166 5.11381 8.86411 5.23945 8.80658L20.2395 1.93158C20.3554 1.87844 20.4849 1.86205 20.6104 1.88461C20.736 1.90718 20.8516 1.96762 20.9418 2.05781C21.032 2.14801 21.0924 2.26365 21.115 2.38919C21.1375 2.51474 21.1212 2.64418 21.068 2.76014L21.0682 2.76033Z" fill="#080809"/>
</g>
<defs>
<filter id="filter0_d_1_173" x="-1" y="0" width="28" height="28" filterUnits="userSpaceOnUse" color-interpolation-filters="sRGB">
<feFlood flood-opacity="0" result="BackgroundImageFix"/>
<feColorMatrix in="SourceAlpha" type="matrix" values="0 0 0 0 0 0 0 0 0 0 0 0 0 0 0 0 0 0 127 0" result="hardAlpha"/>
<feOffset dy="4"/>
<feGaussianBlur stdDeviation="2"/>
<feComposite in2="hardAlpha" operator="out"/>
<feColorMatrix type="matrix" values="0 0 0 0 0 0 0 0 0 0 0 0 0 0 0 0 0 0 0.25 0"/>
<feBlend mode="normal" in2="BackgroundImageFix" result="effect1_dropShadow_1_173"/>
<feBlend mode="normal" in="SourceGraphic" in2="effect1_dropShadow_1_173" result="shape"/>
</filter>
</defs>
</svg>
